<?xml version="1.0" standalone="no"?>
<!DOCTYPE svg PUBLIC "-//W3C//DTD SVG 20010904//EN"
 "http://www.w3.org/TR/2001/REC-SVG-20010904/DTD/svg10.dtd">
<svg version="1.0" xmlns="http://www.w3.org/2000/svg"
 width="128.000000pt" height="128.000000pt" viewBox="0 0 500.000000 500.000000"
 preserveAspectRatio="xMidYMid meet">

<g transform="translate(0.000000,500.000000) scale(0.100000,-0.100000)"
fill="#000000" stroke="none">
<path d="M921 3236 c-81 -174 -151 -333 -151 -340 0 -4 12 -6 26 -4 21 2 31
14 52 65 l27 63 116 0 117 0 27 -65 c25 -58 31 -65 56 -65 l28 0 -19 43 c-10
23 -54 119 -97 212 -77 165 -80 170 -111 173 -32 3 -33 1 -71 -82z m118 -68
c22 -50 40 -93 37 -95 -2 -2 -42 -3 -89 -1 l-86 3 42 93 c22 50 44 92 47 92 4
0 26 -41 49 -92z"/>
<path d="M2090 3285 c-10 -12 -10 -19 -2 -27 19 -19 14 -25 -25 -34 -55 -12
-57 -11 -63 16 -7 29 -37 39 -46 15 -4 -10 1 -25 13 -37 l20 -20 -33 -50 c-35
-51 -41 -72 -25 -82 14 -9 41 5 41 20 0 24 31 64 61 80 39 20 127 18 163 -4
15 -9 38 -35 50 -57 23 -41 48 -52 54 -24 1 9 -13 39 -31 66 l-34 51 20 20
c12 12 17 27 13 37 -9 24 -39 14 -46 -15 -6 -27 -8 -28 -62 -16 -40 9 -43 12
-28 36 5 9 5 19 -2 27 -14 17 -23 16 -38 -2z"/>
<path d="M3560 3241 c0 -49 -1 -50 -32 -53 -25 -2 -34 -8 -36 -25 -3 -18 2
-22 30 -25 l33 -3 3 -102 c3 -96 4 -103 29 -123 21 -16 40 -20 99 -20 72 0 74
1 74 25 0 24 -3 25 -59 25 -83 0 -91 10 -91 116 l0 84 75 0 c73 0 75 1 75 25
0 24 -2 25 -75 25 l-75 0 0 50 c0 47 -2 50 -25 50 -23 0 -25 -3 -25 -49z"/>
<path d="M1627 3190 c-81 -21 -117 -66 -117 -149 0 -92 66 -141 190 -141 67 0
70 -1 70 -23 0 -45 -31 -60 -112 -55 -40 3 -81 8 -90 12 -14 6 -18 3 -18 -12
0 -33 27 -45 113 -49 70 -4 87 -1 115 16 18 12 37 33 42 47 6 14 10 95 10 180
0 154 0 155 -24 164 -39 14 -138 20 -179 10z m121 -46 c21 -6 22 -11 22 -99
l0 -93 -42 -6 c-94 -13 -168 30 -168 99 0 39 39 91 73 98 35 7 90 7 115 1z"/>
<path d="M2500 3194 c-14 -2 -44 -7 -67 -10 l-43 -5 0 -145 0 -144 25 0 25 0
0 124 0 123 38 7 c99 16 155 -3 166 -55 3 -17 6 -69 6 -115 0 -83 0 -84 25
-84 l25 0 0 104 c0 119 -11 161 -49 180 -29 15 -113 26 -151 20z"/>
<path d="M2851 3189 c-30 -5 -56 -10 -57 -12 -1 -1 -5 -12 -9 -25 -6 -22 -5
-23 32 -15 21 4 67 8 101 8 55 0 66 -3 83 -24 36 -44 23 -52 -83 -54 -110 -2
-150 -21 -156 -72 -10 -86 31 -110 180 -109 58 1 111 5 117 8 14 9 15 205 1
240 -18 48 -108 72 -209 55z m169 -208 c0 -46 -8 -51 -93 -51 -69 0 -110 16
-115 45 -7 33 25 45 120 45 l88 0 0 -39z"/>
<path d="M3924 3189 c-25 -6 -53 -23 -74 -44 -29 -30 -34 -43 -37 -92 -5 -72
18 -119 72 -147 50 -26 145 -26 203 0 39 17 42 21 30 37 -12 16 -16 17 -61 1
-81 -28 -167 -3 -188 54 l-8 22 139 0 140 0 0 30 c0 65 -50 123 -120 139 -25
6 -47 10 -50 10 -3 -1 -23 -5 -46 -10z m132 -70 c45 -43 34 -49 -86 -49 -103
0 -110 1 -101 18 11 20 40 47 61 55 31 13 101 -1 126 -24z"/>
<path d="M1298 3183 l-38 -4 0 -145 0 -144 25 0 25 0 0 119 c0 135 -4 131 98
131 49 0 52 2 52 25 0 24 -2 25 -62 23 -35 -1 -80 -3 -100 -5z"/>
<path d="M3140 3072 c0 -129 9 -154 58 -173 30 -12 142 -13 208 -3 l45 6 -3
142 -3 141 -25 0 -25 0 -3 -121 -3 -122 -31 -6 c-72 -14 -140 -3 -160 28 -4 6
-8 59 -8 119 l0 107 -25 0 -25 0 0 -118z"/>
<path d="M2006 3098 c-9 -12 -16 -29 -16 -38 0 -9 7 -26 16 -38 14 -20 24 -22
103 -22 72 0 91 3 104 18 21 23 22 51 1 80 -14 20 -24 22 -104 22 -80 0 -90
-2 -104 -22z m62 -41 c2 -10 -3 -17 -12 -17 -18 0 -29 16 -21 31 9 14 29 6 33
-14z m117 2 c0 -7 -8 -15 -17 -17 -18 -3 -25 18 -11 32 10 10 28 1 28 -15z"/>
<path d="M1925 3029 c-9 -14 3 -58 26 -96 29 -46 116 -87 172 -81 68 8 116 36
149 87 30 48 34 96 9 96 -8 0 -19 -13 -25 -30 -27 -75 -70 -105 -148 -105 -74
0 -120 35 -148 113 -10 28 -24 35 -35 16z"/>
<path d="M2070 2972 c-27 -9 -4 -22 40 -22 28 0 50 5 50 10 0 6 -3 10 -7 11
-32 3 -75 3 -83 1z"/>
<path d="M1910 2625 l0 -65 38 0 c53 0 82 23 82 65 0 42 -29 65 -82 65 l-38 0
0 -65z m98 27 c25 -32 4 -68 -45 -78 l-33 -6 0 57 0 57 33 -7 c17 -4 38 -14
45 -23z"/>
<path d="M2133 2625 c0 -38 2 -53 4 -32 2 20 2 52 0 70 -2 17 -4 1 -4 -38z"/>
<path d="M2260 2670 c-45 -45 -9 -114 58 -108 34 3 37 6 40 36 3 29 1 32 -22
32 -14 0 -26 -4 -26 -10 0 -5 9 -10 20 -10 11 0 20 -6 20 -14 0 -18 -31 -29
-56 -19 -66 24 -28 114 41 97 20 -5 26 -4 21 5 -12 19 -74 13 -96 -9z"/>
<path d="M2460 2625 c0 -37 4 -65 10 -65 6 0 10 28 10 65 0 37 -4 65 -10 65
-6 0 -10 -28 -10 -65z"/>
<path d="M2593 2683 c26 -4 27 -7 27 -64 0 -33 4 -59 10 -59 6 0 10 26 10 59
0 57 1 60 28 64 15 2 -2 4 -38 4 -36 0 -53 -2 -37 -4z"/>
<path d="M2820 2666 c-5 -14 -19 -43 -30 -66 -12 -24 -16 -40 -9 -40 6 0 13 9
16 20 4 16 14 20 43 20 30 0 40 -5 45 -20 3 -11 10 -20 15 -20 12 0 -45 123
-59 128 -6 2 -15 -8 -21 -22z m28 -54 c-28 -5 -33 4 -19 35 l13 28 12 -30 c11
-27 11 -30 -6 -33z"/>
<path d="M3000 2625 l0 -65 53 2 c50 1 50 2 10 5 l-43 4 0 60 c0 33 -4 59 -10
59 -6 0 -10 -28 -10 -65z"/>
</g>
</svg>
